<?xml version="1.0" encoding="utf-8"?> <!-- Generator: IcoMoon.io --> <!DOCTYPE svg PUBLIC "-//W3C//DTD SVG 1.1//EN" "http://www.w3.org/Graphics/SVG/1.1/DTD/svg11.dtd"> <svg width="32" height="32.000003814697266" viewBox="0 0 32 32.000003814697266" xmlns="http://www.w3.org/2000/svg" xmlns:xlink="http://www.w3.org/1999/xlink" fill="#000000"><g><path d="M 16,4C 8.268,4, 2,10.268, 2,18s 6.268,14, 14,14s 14-6.268, 14-14S 23.732,4, 16,4z M 16,29.25 c-6.213,0-11.25-5.037-11.25-11.25c0-6.213, 5.037-11.25, 11.25-11.25c 6.213,0, 11.25,5.037, 11.25,11.25C 27.25,24.213, 22.213,29.25, 16,29.25z M 29.212,8.974C 29.713,8.098, 30,7.082, 30,6c0-3.314-2.686-6-6-6c-1.932,0-3.65,0.913-4.748,2.331 C 23.374,3.182, 26.915,5.619, 29.212,8.974z M 12.748,2.331C 11.65,0.913, 9.932,0, 8,0C 4.686,0, 2,2.686, 2,6 c0,1.082, 0.287,2.098, 0.788,2.974C 5.085,5.619, 8.626,3.182, 12.748,2.331z M 14,10l 2,0 l0,10 l-2,0 L 14,10 z M 16,18l 6,0 l0,2 l-6,0 L 16,18 z"></path></g></svg>