<?xml version="1.0" encoding="utf-8"?> <!-- Generator: IcoMoon.io --> <!DOCTYPE svg PUBLIC "-//W3C//DTD SVG 1.1//EN" "http://www.w3.org/Graphics/SVG/1.1/DTD/svg11.dtd"> <svg width="32" height="32" viewBox="0 0 32 32" xmlns="http://www.w3.org/2000/svg" xmlns:xlink="http://www.w3.org/1999/xlink" fill="#000000"><g><path d="M 5.484,14.573c-0.004,0.009-0.005,0.020-0.009,0.029C 5.385,14.831, 5.333,15.075, 5.333,15.333s 0.052,0.503, 0.141,0.731 c 0.004,0.009, 0.005,0.020, 0.009,0.029c 0.101,0.248, 0.251,0.471, 0.437,0.657l 6.664,6.664c 0.781,0.781, 2.047,0.781, 2.828,0 c 0.781-0.78, 0.781-2.048,0-2.828L 12.161,17.333L 24.667,17.333 c 1.104,0, 2-0.895, 2-2S 25.771,13.333, 24.667,13.333L 12.161,13.333 l 3.252-3.252 c 0.781-0.78, 0.781-2.048,0-2.828C 15.024,6.861, 14.512,6.667, 14,6.667S 12.976,6.861, 12.585,7.252l-6.664,6.664 C 5.735,14.103, 5.585,14.327, 5.484,14.573z"></path></g></svg>