<?xml version="1.0" encoding="utf-8"?> <!-- Generator: IcoMoon.io --> <!DOCTYPE svg PUBLIC "-//W3C//DTD SVG 1.1//EN" "http://www.w3.org/Graphics/SVG/1.1/DTD/svg11.dtd"> <svg width="32" height="32" viewBox="0 0 32 32" xmlns="http://www.w3.org/2000/svg" xmlns:xlink="http://www.w3.org/1999/xlink" fill="#000000"><g><path d="M 15.907,26.517c 0.011,0.004, 0.021,0.005, 0.029,0.009c 0.228,0.089, 0.472,0.141, 0.731,0.141s 0.503-0.052, 0.731-0.141 c 0.009-0.004, 0.020-0.005, 0.029-0.009c 0.248-0.101, 0.471-0.251, 0.656-0.437l 6.664-6.664c 0.781-0.781, 0.781-2.047,0-2.828 s-2.047-0.781-2.828,0L 18.667,19.84L 18.667,7.333 C 18.667,6.229, 17.771,5.333, 16.667,5.333S 14.667,6.229, 14.667,7.333l0,12.507 L 11.415,16.587c-0.781-0.781-2.047-0.781-2.828,0 C 8.195,16.977, 8,17.489, 8,18.001s 0.195,1.024, 0.585,1.415l 6.664,6.664C 15.436,26.267, 15.659,26.416, 15.907,26.517z"></path></g></svg>